<svg width="276" height="59" viewBox="0 0 276 59" fill="none" xmlns="http://www.w3.org/2000/svg">
<path d="M16.8637 58.182V0.0001297H20.591V58.182H16.8637ZM26.75 19.2047C26.5682 17.3713 25.7879 15.9471 24.4091 14.9319C23.0303 13.9168 21.1591 13.4092 18.7955 13.4092C17.1894 13.4092 15.8334 13.6365 14.7273 14.091C13.6213 14.5304 12.7728 15.1441 12.1819 15.9319C11.6061 16.7198 11.3182 17.6138 11.3182 18.6138C11.2879 19.4471 11.4622 20.1744 11.841 20.7956C12.2349 21.4168 12.7728 21.9547 13.4546 22.4092C14.1364 22.8486 14.9243 23.235 15.8182 23.5683C16.7122 23.8865 17.6667 24.1592 18.6819 24.3865L22.8637 25.3865C24.894 25.841 26.7576 26.4471 28.4546 27.2047C30.1516 27.9623 31.6213 28.8941 32.8637 30.0001C34.1061 31.1062 35.0682 32.4092 35.75 33.9092C36.447 35.4092 36.8031 37.1289 36.8182 39.0683C36.8031 41.9168 36.0758 44.3865 34.6364 46.4774C33.2122 48.5532 31.1516 50.1668 28.4546 51.3183C25.7728 52.4547 22.5379 53.0229 18.75 53.0229C14.9925 53.0229 11.7197 52.4471 8.93186 51.2956C6.15914 50.1441 3.99247 48.4395 2.43186 46.182C0.886408 43.9092 0.075802 41.0986 4.43459e-05 37.7501H9.52277C9.62883 39.3107 10.0758 40.6138 10.8637 41.6592C11.6667 42.6895 12.7349 43.4698 14.0682 44.0001C15.4167 44.5153 16.9394 44.7729 18.6364 44.7729C20.3031 44.7729 21.75 44.5304 22.9773 44.0456C24.2197 43.5607 25.1819 42.8865 25.8637 42.0229C26.5455 41.1592 26.8864 40.1668 26.8864 39.0456C26.8864 38.0001 26.5758 37.1213 25.9546 36.4092C25.3485 35.6971 24.4546 35.091 23.2728 34.591C22.1061 34.091 20.6743 33.6365 18.9773 33.2274L13.9091 31.9547C9.98489 31.0001 6.88641 29.5077 4.61368 27.4774C2.34095 25.4471 1.21217 22.7123 1.22732 19.2729C1.21217 16.4547 1.96217 13.9926 3.47732 11.8865C5.00762 9.78044 7.10611 8.1365 9.77277 6.95468C12.4394 5.77286 15.4697 5.18195 18.8637 5.18195C22.3182 5.18195 25.3334 5.77286 27.9091 6.95468C30.5 8.1365 32.5152 9.78044 33.9546 11.8865C35.394 13.9926 36.1364 16.4319 36.1819 19.2047H26.75ZM52.2103 53.0229C49.983 53.0229 47.9982 52.6365 46.2557 51.8638C44.5133 51.0759 43.1345 49.9168 42.1194 48.3865C41.1194 46.841 40.6194 44.9168 40.6194 42.6138C40.6194 40.6744 40.9754 39.0456 41.6875 37.7274C42.3997 36.4092 43.3694 35.3486 44.5966 34.5456C45.8239 33.7426 47.2178 33.1365 48.7785 32.7274C50.3542 32.3183 52.0057 32.0304 53.733 31.8638C55.7633 31.6516 57.3997 31.4547 58.6421 31.2729C59.8845 31.0759 60.786 30.788 61.3466 30.4092C61.9072 30.0304 62.1875 29.4698 62.1875 28.7274V28.591C62.1875 27.1516 61.733 26.038 60.8239 25.2501C59.93 24.4623 58.6572 24.0683 57.0057 24.0683C55.2633 24.0683 53.8769 24.4547 52.8466 25.2274C51.8163 25.985 51.1345 26.9395 50.8012 28.091L41.8466 27.3638C42.3012 25.2426 43.1951 23.4092 44.5285 21.8638C45.8618 20.3032 47.5815 19.1062 49.6875 18.2729C51.8088 17.4244 54.2633 17.0001 57.0512 17.0001C58.9906 17.0001 60.8466 17.2274 62.6194 17.6819C64.4072 18.1365 65.9906 18.841 67.3694 19.7956C68.7633 20.7501 69.8618 21.9774 70.6648 23.4774C71.4678 24.9623 71.8694 26.7426 71.8694 28.8183V52.3638H62.6875V47.5229H62.4148C61.8542 48.6138 61.1042 49.5759 60.1648 50.4092C59.2254 51.2274 58.0966 51.8713 56.7785 52.341C55.4603 52.7956 53.9375 53.0229 52.2103 53.0229ZM54.983 46.341C56.4072 46.341 57.6648 46.0607 58.7557 45.5001C59.8466 44.9244 60.7027 44.1516 61.3239 43.182C61.9451 42.2123 62.2557 41.1138 62.2557 39.8865V36.182C61.9527 36.3789 61.536 36.5607 61.0057 36.7274C60.4906 36.8789 59.9072 37.0229 59.2557 37.1592C58.6042 37.2804 57.9527 37.3941 57.3012 37.5001C56.6497 37.591 56.0588 37.6744 55.5285 37.7501C54.3921 37.9168 53.3997 38.182 52.5512 38.5456C51.7027 38.9092 51.0436 39.4016 50.5739 40.0229C50.1042 40.6289 49.8694 41.3865 49.8694 42.2956C49.8694 43.6138 50.3466 44.6213 51.3012 45.3183C52.2709 46.0001 53.4982 46.341 54.983 46.341ZM88.0625 5.81831V52.3638H78.3807V5.81831H88.0625ZM110.727 53.0456C107.136 53.0456 104.045 52.3183 101.455 50.8638C98.8788 49.3941 96.894 47.3183 95.5 44.6365C94.1061 41.9395 93.4091 38.7501 93.4091 35.0683C93.4091 31.4774 94.1061 28.3259 95.5 25.6138C96.894 22.9016 98.8561 20.788 101.386 19.2729C103.932 17.7577 106.917 17.0001 110.341 17.0001C112.644 17.0001 114.788 17.3713 116.773 18.1138C118.773 18.841 120.515 19.9395 122 21.4092C123.5 22.8789 124.667 24.7274 125.5 26.9547C126.333 29.1668 126.75 31.7577 126.75 34.7274V37.3865H97.2728V31.3865H117.636C117.636 29.9926 117.333 28.7577 116.727 27.682C116.121 26.6062 115.28 25.7653 114.205 25.1592C113.144 24.538 111.909 24.2274 110.5 24.2274C109.03 24.2274 107.727 24.5683 106.591 25.2501C105.47 25.9168 104.591 26.8183 103.955 27.9547C103.318 29.0759 102.992 30.3259 102.977 31.7047V37.4092C102.977 39.1365 103.295 40.6289 103.932 41.8865C104.583 43.1441 105.5 44.1138 106.682 44.7956C107.864 45.4774 109.265 45.8183 110.886 45.8183C111.962 45.8183 112.947 45.6668 113.841 45.3638C114.735 45.0607 115.5 44.6062 116.136 44.0001C116.773 43.3941 117.258 42.6516 117.591 41.7729L126.546 42.3638C126.091 44.5153 125.159 46.3941 123.75 48.0001C122.356 49.591 120.553 50.8335 118.341 51.7274C116.144 52.6062 113.606 53.0456 110.727 53.0456Z" fill="#12BF7D"/>
<path d="M132.25 52.3638V5.81831H142.091V25.0229H162.068V5.81831H171.886V52.3638H162.068V33.1365H142.091V52.3638H132.25ZM201.205 37.5001V17.4547H210.886V52.3638H201.591V46.0229H201.227C200.439 48.0683 199.129 49.7123 197.295 50.9547C195.477 52.1971 193.258 52.8183 190.636 52.8183C188.303 52.8183 186.25 52.288 184.477 51.2274C182.705 50.1668 181.318 48.6592 180.318 46.7047C179.333 44.7501 178.833 42.4092 178.818 39.682V17.4547H188.5V37.9547C188.515 40.0153 189.068 41.6441 190.159 42.841C191.25 44.038 192.712 44.6365 194.545 44.6365C195.712 44.6365 196.803 44.3713 197.818 43.841C198.833 43.2956 199.652 42.4926 200.273 41.432C200.909 40.3713 201.22 39.0607 201.205 37.5001ZM227.313 32.182V52.3638H217.631V17.4547H226.858V23.6138H227.267C228.04 21.5835 229.335 19.9774 231.153 18.7956C232.972 17.5986 235.176 17.0001 237.767 17.0001C240.191 17.0001 242.305 17.5304 244.108 18.591C245.911 19.6516 247.313 21.1668 248.313 23.1365C249.313 25.091 249.813 27.4244 249.813 30.1365V52.3638H240.131V31.8638C240.146 29.7274 239.6 28.0607 238.494 26.8638C237.388 25.6516 235.866 25.0456 233.926 25.0456C232.623 25.0456 231.472 25.3259 230.472 25.8865C229.487 26.4471 228.714 27.2653 228.153 28.341C227.608 29.4016 227.328 30.682 227.313 32.182ZM275.011 17.4547V24.7274H253.989V17.4547H275.011ZM258.761 9.09104H268.443V41.6365C268.443 42.5304 268.58 43.2274 268.852 43.7274C269.125 44.2123 269.504 44.5532 269.989 44.7501C270.489 44.9471 271.064 45.0456 271.716 45.0456C272.17 45.0456 272.625 45.0077 273.08 44.932C273.534 44.841 273.883 44.7729 274.125 44.7274L275.648 51.932C275.163 52.0835 274.481 52.2577 273.602 52.4547C272.724 52.6668 271.655 52.7956 270.398 52.841C268.064 52.932 266.019 52.6213 264.261 51.9092C262.519 51.1971 261.163 50.091 260.193 48.591C259.224 47.091 258.746 45.1971 258.761 42.9092V9.09104Z" fill="white"/>
</svg>
