<svg width="276" height="59" viewBox="0 0 276 59" fill="none" xmlns="http://www.w3.org/2000/svg">
<path d="M16.8637 58.1817V-0.000114441H20.591V58.1817H16.8637ZM26.75 19.2044C26.5682 17.3711 25.7879 15.9469 24.4091 14.9317C23.0303 13.9166 21.1591 13.409 18.7955 13.409C17.1894 13.409 15.8334 13.6363 14.7273 14.0908C13.6213 14.5302 12.7728 15.1438 12.1819 15.9317C11.6061 16.7196 11.3182 17.6135 11.3182 18.6135C11.2879 19.4469 11.4622 20.1741 11.841 20.7953C12.2349 21.4166 12.7728 21.9544 13.4546 22.409C14.1364 22.8484 14.9243 23.2347 15.8182 23.5681C16.7122 23.8863 17.6667 24.159 18.6819 24.3863L22.8637 25.3863C24.894 25.8408 26.7576 26.4469 28.4546 27.2044C30.1516 27.962 31.6213 28.8938 32.8637 29.9999C34.1061 31.1059 35.0682 32.409 35.75 33.909C36.447 35.409 36.8031 37.1287 36.8182 39.0681C36.8031 41.9166 36.0758 44.3863 34.6364 46.4772C33.2122 48.5529 31.1516 50.1666 28.4546 51.3181C25.7728 52.4544 22.5379 53.0226 18.75 53.0226C14.9925 53.0226 11.7197 52.4469 8.93186 51.2953C6.15914 50.1438 3.99247 48.4393 2.43186 46.1817C0.886408 43.909 0.075802 41.0984 4.43459e-05 37.7499H9.52277C9.62883 39.3105 10.0758 40.6135 10.8637 41.659C11.6667 42.6893 12.7349 43.4696 14.0682 43.9999C15.4167 44.515 16.9394 44.7726 18.6364 44.7726C20.3031 44.7726 21.75 44.5302 22.9773 44.0453C24.2197 43.5605 25.1819 42.8863 25.8637 42.0226C26.5455 41.159 26.8864 40.1666 26.8864 39.0453C26.8864 37.9999 26.5758 37.1211 25.9546 36.409C25.3485 35.6969 24.4546 35.0908 23.2728 34.5908C22.1061 34.0908 20.6743 33.6363 18.9773 33.2272L13.9091 31.9544C9.98489 30.9999 6.88641 29.5075 4.61368 27.4772C2.34095 25.4469 1.21217 22.712 1.22732 19.2726C1.21217 16.4544 1.96217 13.9923 3.47732 11.8863C5.00762 9.78019 7.10611 8.13625 9.77277 6.95443C12.4394 5.77261 15.4697 5.18171 18.8637 5.18171C22.3182 5.18171 25.3334 5.77261 27.9091 6.95443C30.5 8.13625 32.5152 9.78019 33.9546 11.8863C35.394 13.9923 36.1364 16.4317 36.1819 19.2044H26.75ZM52.2103 53.0226C49.983 53.0226 47.9982 52.6363 46.2557 51.8635C44.5133 51.0756 43.1345 49.9166 42.1194 48.3863C41.1194 46.8408 40.6194 44.9166 40.6194 42.6135C40.6194 40.6741 40.9754 39.0453 41.6875 37.7272C42.3997 36.409 43.3694 35.3484 44.5966 34.5453C45.8239 33.7423 47.2178 33.1363 48.7785 32.7272C50.3542 32.3181 52.0057 32.0302 53.733 31.8635C55.7633 31.6514 57.3997 31.4544 58.6421 31.2726C59.8845 31.0756 60.786 30.7878 61.3466 30.409C61.9072 30.0302 62.1875 29.4696 62.1875 28.7272V28.5908C62.1875 27.1514 61.733 26.0378 60.8239 25.2499C59.93 24.462 58.6572 24.0681 57.0057 24.0681C55.2633 24.0681 53.8769 24.4544 52.8466 25.2272C51.8163 25.9847 51.1345 26.9393 50.8012 28.0908L41.8466 27.3635C42.3012 25.2423 43.1951 23.409 44.5285 21.8635C45.8618 20.3029 47.5815 19.1059 49.6875 18.2726C51.8088 17.4241 54.2633 16.9999 57.0512 16.9999C58.9906 16.9999 60.8466 17.2272 62.6194 17.6817C64.4072 18.1363 65.9906 18.8408 67.3694 19.7953C68.7633 20.7499 69.8618 21.9772 70.6648 23.4772C71.4678 24.962 71.8694 26.7423 71.8694 28.8181V52.3635H62.6875V47.5226H62.4148C61.8542 48.6135 61.1042 49.5756 60.1648 50.409C59.2254 51.2272 58.0966 51.8711 56.7785 52.3408C55.4603 52.7953 53.9375 53.0226 52.2103 53.0226ZM54.983 46.3408C56.4072 46.3408 57.6648 46.0605 58.7557 45.4999C59.8466 44.9241 60.7027 44.1514 61.3239 43.1817C61.9451 42.212 62.2557 41.1135 62.2557 39.8863V36.1817C61.9527 36.3787 61.536 36.5605 61.0057 36.7272C60.4906 36.8787 59.9072 37.0226 59.2557 37.159C58.6042 37.2802 57.9527 37.3938 57.3012 37.4999C56.6497 37.5908 56.0588 37.6741 55.5285 37.7499C54.3921 37.9166 53.3997 38.1817 52.5512 38.5453C51.7027 38.909 51.0436 39.4014 50.5739 40.0226C50.1042 40.6287 49.8694 41.3863 49.8694 42.2953C49.8694 43.6135 50.3466 44.6211 51.3012 45.3181C52.2709 45.9999 53.4982 46.3408 54.983 46.3408ZM88.0625 5.81807V52.3635H78.3807V5.81807H88.0625ZM110.727 53.0453C107.136 53.0453 104.045 52.3181 101.455 50.8635C98.8788 49.3938 96.894 47.3181 95.5 44.6363C94.1061 41.9393 93.4091 38.7499 93.4091 35.0681C93.4091 31.4772 94.1061 28.3256 95.5 25.6135C96.894 22.9014 98.8561 20.7878 101.386 19.2726C103.932 17.7575 106.917 16.9999 110.341 16.9999C112.644 16.9999 114.788 17.3711 116.773 18.1135C118.773 18.8408 120.515 19.9393 122 21.409C123.5 22.8787 124.667 24.7272 125.5 26.9544C126.333 29.1666 126.75 31.7575 126.75 34.7272V37.3863H97.2728V31.3863H117.636C117.636 29.9923 117.333 28.7575 116.727 27.6817C116.121 26.6059 115.28 25.765 114.205 25.159C113.144 24.5378 111.909 24.2272 110.5 24.2272C109.03 24.2272 107.727 24.5681 106.591 25.2499C105.47 25.9166 104.591 26.8181 103.955 27.9544C103.318 29.0756 102.992 30.3256 102.977 31.7044V37.409C102.977 39.1363 103.295 40.6287 103.932 41.8863C104.583 43.1438 105.5 44.1135 106.682 44.7953C107.864 45.4772 109.265 45.8181 110.886 45.8181C111.962 45.8181 112.947 45.6666 113.841 45.3635C114.735 45.0605 115.5 44.6059 116.136 43.9999C116.773 43.3938 117.258 42.6514 117.591 41.7726L126.546 42.3635C126.091 44.515 125.159 46.3938 123.75 47.9999C122.356 49.5908 120.553 50.8332 118.341 51.7272C116.144 52.6059 113.606 53.0453 110.727 53.0453ZM132.25 52.3635V5.81807H142.091V25.0226H162.068V5.81807H171.886V52.3635H162.068V33.1363H142.091V52.3635H132.25ZM201.205 37.4999V17.4544H210.886V52.3635H201.591V46.0226H201.227C200.439 48.0681 199.129 49.712 197.295 50.9544C195.477 52.1969 193.258 52.8181 190.636 52.8181C188.303 52.8181 186.25 52.2878 184.477 51.2272C182.705 50.1666 181.318 48.659 180.318 46.7044C179.333 44.7499 178.833 42.409 178.818 39.6817V17.4544H188.5V37.9544C188.515 40.015 189.068 41.6438 190.159 42.8408C191.25 44.0378 192.712 44.6363 194.545 44.6363C195.712 44.6363 196.803 44.3711 197.818 43.8408C198.833 43.2953 199.652 42.4923 200.273 41.4317C200.909 40.3711 201.22 39.0605 201.205 37.4999ZM227.313 32.1817V52.3635H217.631V17.4544H226.858V23.6135H227.267C228.04 21.5832 229.335 19.9772 231.153 18.7953C232.972 17.5984 235.176 16.9999 237.767 16.9999C240.191 16.9999 242.305 17.5302 244.108 18.5908C245.911 19.6514 247.313 21.1666 248.313 23.1363C249.313 25.0908 249.813 27.4241 249.813 30.1363V52.3635H240.131V31.8635C240.146 29.7272 239.6 28.0605 238.494 26.8635C237.388 25.6514 235.866 25.0453 233.926 25.0453C232.623 25.0453 231.472 25.3256 230.472 25.8863C229.487 26.4469 228.714 27.265 228.153 28.3408C227.608 29.4014 227.328 30.6817 227.313 32.1817ZM275.011 17.4544V24.7272H253.989V17.4544H275.011ZM258.761 9.0908H268.443V41.6363C268.443 42.5302 268.58 43.2272 268.852 43.7272C269.125 44.212 269.504 44.5529 269.989 44.7499C270.489 44.9469 271.064 45.0453 271.716 45.0453C272.17 45.0453 272.625 45.0075 273.08 44.9317C273.534 44.8408 273.883 44.7726 274.125 44.7272L275.648 51.9317C275.163 52.0832 274.481 52.2575 273.602 52.4544C272.724 52.6666 271.655 52.7953 270.398 52.8408C268.064 52.9317 266.019 52.6211 264.261 51.909C262.519 51.1969 261.163 50.0908 260.193 48.5908C259.224 47.0908 258.746 45.1969 258.761 42.909V9.0908Z" fill="black"/>
</svg>
